solid OpenSCAD_Model
  facet normal 0.679577 0.733591 -0.00450238
    outer loop
      vertex 0.247671 5.5306 -0.26166
      vertex 1.34267 4.52505 1.17624
      vertex 2.29572 3.61664 -2.98385
    endloop
  endfacet
  facet normal -0.277897 0.67489 -0.683591
    outer loop
      vertex -5.86744 -0.333873 -3.56554
      vertex 0.904985 0.38298 -5.61097
      vertex -4.26912 -1.74754 -5.61097
    endloop
  endfacet
  facet normal -0.278872 0.676406 0.681693
    outer loop
      vertex -4.15615 2.22225 1.22113
      vertex -0.451362 2.3936 2.56669
      vertex -2.94184 4.21727 -0.26166
    endloop
  endfacet
  facet normal 0.679578 0.73359 -0.00450204
    outer loop
      vertex 1.34267 4.52505 1.17624
      vertex 4.26501 1.77628 -5.60133
      vertex 2.29572 3.61664 -2.98385
    endloop
  endfacet
  facet normal -0.277898 0.674891 -0.68359
    outer loop
      vertex -5.27051 3.25438 -0.265625
      vertex 0.247671 5.5306 -0.26166
      vertex 2.29572 3.61664 -2.98385
    endloop
  endfacet
  facet normal 0.680039 0.733163 -0.00430316
    outer loop
      vertex 3.31196 2.68469 -1.44124
      vertex 5.35872 0.770258 -4.16349
      vertex 4.26501 1.77628 -5.60133
    endloop
  endfacet
  facet normal 0.277896 -0.674889 -0.683592
    outer loop
      vertex -4.26912 -1.74754 -5.61097
      vertex 0.904985 0.38298 -5.61097
      vertex -3.22773 -2.72075 -4.2268
    endloop
  endfacet
  facet normal -0.277627 0.674235 -0.684347
    outer loop
      vertex -5.27051 3.25438 -0.265625
      vertex -2.94184 4.21727 -0.26166
      vertex 0.247671 5.5306 -0.26166
    endloop
  endfacet
  facet normal -0.277923 0.674871 -0.683599
    outer loop
      vertex -5.86744 -0.333873 -3.56554
      vertex -4.26912 -1.74754 -5.61097
      vertex -4.6644 -1.45815 -5.16457
    endloop
  endfacet
  facet normal -0.848297 -0.227978 0.477931
    outer loop
      vertex -4.15615 2.22225 1.22113
      vertex -1.84777 -0.18541 4.16988
      vertex -1.96825 0.177589 4.12919
    endloop
  endfacet
  facet normal -0.85171 -0.263224 0.453104
    outer loop
      vertex -5.55805 1.63654 -1.74598
      vertex -1.84777 -0.18541 4.16988
      vertex -5.27051 3.25438 -0.265625
    endloop
  endfacet
  facet normal 0.334969 -0.813498 -0.475413
    outer loop
      vertex -0.241827 -5.5 -0.266196
      vertex 5.27036 -3.25002 -0.232419
      vertex 3.13909 -4.1276 -0.232419
    endloop
  endfacet
  facet normal -0.277898 0.674888 0.683593
    outer loop
      vertex -0.722202 0.668713 4.15951
      vertex 1.40906 1.5463 4.15951
      vertex -0.451362 2.3936 2.56669
    endloop
  endfacet
  facet normal 0.281668 -0.673537 -0.683381
    outer loop
      vertex 3.44106 -1.41525 -2.80177
      vertex 5.82475 0.334741 -3.54407
      vertex 5.7015 -0.504224 -2.76799
    endloop
  endfacet
  facet normal 0.28359 -0.688719 0.667265
    outer loop
      vertex -0.41972 -4.21428 1.19062
      vertex 3.13909 -4.1276 -0.232419
      vertex 5.27036 -3.25002 -0.232419
    endloop
  endfacet
  facet normal 0.851271 0.277556 0.445309
    outer loop
      vertex 1.40906 1.5463 4.15951
      vertex 1.9741 -0.207981 4.17278
      vertex 5.27036 -3.25002 -0.232419
    endloop
  endfacet
  facet normal -0.682784 -0.73062 -1.28885e-06
    outer loop
      vertex -4.73792 -1.39072 -2.06501
      vertex -3.53487 -2.515 -3.66405
      vertex -1.84074 -4.09822 1.78579
    endloop
  endfacet
  facet normal 0.851402 0.282421 0.441987
    outer loop
      vertex 1.8087 4.08953 1.79567
      vertex 3.64918 1.43083 -0.0508013
      vertex 3.77798 2.24918 -0.821819
    endloop
  endfacet
  facet normal -0.848715 -0.231176 0.475647
    outer loop
      vertex -5.27051 3.25438 -0.265625
      vertex -1.84777 -0.18541 4.16988
      vertex -4.15615 2.22225 1.22113
    endloop
  endfacet
  facet normal -0.277898 0.67489 -0.683591
    outer loop
      vertex -5.86744 -0.333873 -3.56554
      vertex -5.27051 3.25438 -0.265625
      vertex 2.29572 3.61664 -2.98385
    endloop
  endfacet
  facet normal -0.683005 -0.730414 -0.000312086
    outer loop
      vertex -5.86744 -0.333873 -3.56554
      vertex -3.53487 -2.515 -3.66405
      vertex -4.73792 -1.39072 -2.06501
    endloop
  endfacet
  facet normal 0.280946 -0.672932 -0.684274
    outer loop
      vertex 1.94637 -0.590229 -4.2268
      vertex 5.82475 0.334741 -3.54407
      vertex 3.44106 -1.41525 -2.80177
    endloop
  endfacet
  facet normal 0.282006 -0.674413 -0.682378
    outer loop
      vertex 3.44106 -1.41525 -2.80177
      vertex 5.7015 -0.504224 -2.76799
      vertex 5.27036 -3.25002 -0.232419
    endloop
  endfacet
  facet normal -0.277898 0.674887 0.683593
    outer loop
      vertex -0.451362 2.3936 2.56669
      vertex 1.40906 1.5463 4.15951
      vertex 1.6799 3.27119 2.56669
    endloop
  endfacet
  facet normal 0.851474 0.277618 0.444882
    outer loop
      vertex 1.40906 1.5463 4.15951
      vertex 1.5144 1.20195 4.17278
      vertex 1.9741 -0.207981 4.17278
    endloop
  endfacet
  facet normal -0.701842 -0.420648 0.574867
    outer loop
      vertex -1.84074 -4.09822 1.78579
      vertex -1.38807 -1.59534 4.16988
      vertex -1.68628 -3.11448 2.6942
    endloop
  endfacet
  facet normal 0.682944 0.730471 -0.000225459
    outer loop
      vertex 3.77798 2.24918 -0.821819
      vertex 5.82475 0.334741 -3.54407
      vertex 5.35872 0.770258 -4.16349
    endloop
  endfacet
  facet normal 0.679578 0.73359 -0.00450204
    outer loop
      vertex 1.34267 4.52505 1.17624
      vertex 3.31196 2.68469 -1.44124
      vertex 4.26501 1.77628 -5.60133
    endloop
  endfacet
  facet normal -0.851271 -0.277552 0.445313
    outer loop
      vertex -2.14598 -1.70455 2.6942
      vertex -1.84074 -4.09822 1.78579
      vertex -1.68628 -3.11448 2.6942
    endloop
  endfacet
  facet normal -0.281646 0.672309 0.684599
    outer loop
      vertex -4.15615 2.22225 1.22113
      vertex -1.96825 0.177589 4.12919
      vertex -0.722202 0.668713 4.15951
    endloop
  endfacet
  facet normal -0.277897 0.674889 -0.683592
    outer loop
      vertex -5.86744 -0.333873 -3.56554
      vertex 2.29572 3.61664 -2.98385
      vertex 0.904985 0.38298 -5.61097
    endloop
  endfacet
  facet normal -0.277894 0.674888 -0.683594
    outer loop
      vertex 0.904985 0.38298 -5.61097
      vertex 2.29572 3.61664 -2.98385
      vertex 4.26501 1.77628 -5.60133
    endloop
  endfacet
  facet normal -0.635382 -0.769564 -0.0637315
    outer loop
      vertex -4.6644 -1.45815 -5.16457
      vertex -4.26912 -1.74754 -5.61097
      vertex -3.53487 -2.515 -3.66405
    endloop
  endfacet
  facet normal 0.221138 -0.7117 0.666769
    outer loop
      vertex -1.84074 -4.09822 1.78579
      vertex -0.6377 -5.2225 0.186755
      vertex -0.41972 -4.21428 1.19062
    endloop
  endfacet
  facet normal 0.25466 -0.709405 0.657186
    outer loop
      vertex -0.6377 -5.2225 0.186755
      vertex -0.241827 -5.5 -0.266196
      vertex -0.41972 -4.21428 1.19062
    endloop
  endfacet
  facet normal 0.851266 0.277371 0.445434
    outer loop
      vertex 1.9741 -0.207981 4.17278
      vertex 4.0112 -2.11172 1.46514
      vertex 5.27036 -3.25002 -0.232419
    endloop
  endfacet
  facet normal -0.266106 0.682881 0.680338
    outer loop
      vertex 1.34267 4.52505 1.17624
      vertex 1.6799 3.27119 2.56669
      vertex 1.8087 4.08953 1.79567
    endloop
  endfacet
  facet normal -0.266345 0.682802 0.680325
    outer loop
      vertex 0.247671 5.5306 -0.26166
      vertex 1.6799 3.27119 2.56669
      vertex 1.34267 4.52505 1.17624
    endloop
  endfacet
  facet normal -0.851271 -0.277552 0.445312
    outer loop
      vertex -4.51666 0.663328 -0.361814
      vertex -1.84074 -4.09822 1.78579
      vertex -2.14598 -1.70455 2.6942
    endloop
  endfacet
  facet normal -0.846528 -0.276006 0.455204
    outer loop
      vertex -2.14598 -1.70455 2.6942
      vertex -1.38807 -1.59534 4.16988
      vertex -1.84777 -0.18541 4.16988
    endloop
  endfacet
  facet normal -0.846528 -0.276006 0.455204
    outer loop
      vertex -1.38807 -1.59534 4.16988
      vertex -2.14598 -1.70455 2.6942
      vertex -1.68628 -3.11448 2.6942
    endloop
  endfacet
  facet normal -0.0140834 0.0342023 0.999316
    outer loop
      vertex -0.722202 0.668713 4.15951
      vertex -0.616868 0.324366 4.17278
      vertex 1.40906 1.5463 4.15951
    endloop
  endfacet
  facet normal -0.277932 0.674886 -0.683581
    outer loop
      vertex -5.86744 -0.333873 -3.56554
      vertex -5.55805 1.63654 -1.74598
      vertex -5.27051 3.25438 -0.265625
    endloop
  endfacet
  facet normal -0.279331 0.674724 0.683171
    outer loop
      vertex -4.15615 2.22225 1.22113
      vertex -0.722202 0.668713 4.15951
      vertex -0.451362 2.3936 2.56669
    endloop
  endfacet
  facet normal -0.281002 0.676778 0.680448
    outer loop
      vertex -5.27051 3.25438 -0.265625
      vertex -4.15615 2.22225 1.22113
      vertex -2.94184 4.21727 -0.26166
    endloop
  endfacet
  facet normal 0.28094 -0.672793 -0.684414
    outer loop
      vertex 0.904985 0.38298 -5.61097
      vertex 5.35872 0.770258 -4.16349
      vertex 5.82475 0.334741 -3.54407
    endloop
  endfacet
  facet normal 0.280944 -0.672777 -0.684429
    outer loop
      vertex 0.904985 0.38298 -5.61097
      vertex 4.26501 1.77628 -5.60133
      vertex 5.35872 0.770258 -4.16349
    endloop
  endfacet
  facet normal 0.334918 -0.81337 -0.475667
    outer loop
      vertex -0.241827 -5.5 -0.266196
      vertex 3.00992 -4.16104 -0.266196
      vertex 5.27036 -3.25002 -0.232419
    endloop
  endfacet
  facet normal 0.85127 0.277555 0.445311
    outer loop
      vertex 1.40906 1.5463 4.15951
      vertex 5.7015 -0.504224 -2.76799
      vertex 3.64918 1.43083 -0.0508013
    endloop
  endfacet
  facet normal -0.634258 -0.770426 -0.0644982
    outer loop
      vertex -4.26912 -1.74754 -5.61097
      vertex -3.22773 -2.72075 -4.2268
      vertex -0.6377 -5.2225 0.186755
    endloop
  endfacet
  facet normal -0.683005 -0.730414 -0.000309092
    outer loop
      vertex -5.86744 -0.333873 -3.56554
      vertex -4.6644 -1.45815 -5.16457
      vertex -3.53487 -2.515 -3.66405
    endloop
  endfacet
  facet normal -0.634265 -0.770421 -0.0644906
    outer loop
      vertex -4.26912 -1.74754 -5.61097
      vertex -0.6377 -5.2225 0.186755
      vertex -3.53487 -2.515 -3.66405
    endloop
  endfacet
  facet normal -0.682786 -0.730618 -4.04052e-08
    outer loop
      vertex -3.53487 -2.515 -3.66405
      vertex -0.6377 -5.2225 0.186755
      vertex -1.84074 -4.09822 1.78579
    endloop
  endfacet
  facet normal 0.278785 -0.702894 0.654385
    outer loop
      vertex -0.41972 -4.21428 1.19062
      vertex -0.241827 -5.5 -0.266196
      vertex 3.13909 -4.1276 -0.232419
    endloop
  endfacet
  facet normal -0.626566 -0.776019 -0.0721825
    outer loop
      vertex -3.22773 -2.72075 -4.2268
      vertex -0.241827 -5.5 -0.266196
      vertex -0.6377 -5.2225 0.186755
    endloop
  endfacet
  facet normal 0.682786 0.730619 7.53211e-07
    outer loop
      vertex 1.34267 4.52505 1.17624
      vertex 1.8087 4.08953 1.79567
      vertex 3.77798 2.24918 -0.821819
    endloop
  endfacet
  facet normal 0.851271 0.277553 0.445312
    outer loop
      vertex 1.40906 1.5463 4.15951
      vertex 5.27036 -3.25002 -0.232419
      vertex 5.7015 -0.504224 -2.76799
    endloop
  endfacet
  facet normal 0.851417 0.282403 0.44197
    outer loop
      vertex 3.64918 1.43083 -0.0508013
      vertex 5.7015 -0.504224 -2.76799
      vertex 3.77798 2.24918 -0.821819
    endloop
  endfacet
  facet normal 0.851589 0.283049 0.441226
    outer loop
      vertex 3.77798 2.24918 -0.821819
      vertex 5.7015 -0.504224 -2.76799
      vertex 5.82475 0.334741 -3.54407
    endloop
  endfacet
  facet normal -0.0162452 0.0335406 0.999305
    outer loop
      vertex -1.84777 -0.18541 4.16988
      vertex -0.616868 0.324366 4.17278
      vertex -0.722202 0.668713 4.15951
    endloop
  endfacet
  facet normal -0.060224 0.0914317 0.993989
    outer loop
      vertex -1.96825 0.177589 4.12919
      vertex -1.84777 -0.18541 4.16988
      vertex -0.722202 0.668713 4.15951
    endloop
  endfacet
  facet normal -0.851114 -0.272789 0.448544
    outer loop
      vertex -5.86744 -0.333873 -3.56554
      vertex -4.73792 -1.39072 -2.06501
      vertex -4.82605 -1.30708 -2.18137
    endloop
  endfacet
  facet normal -0.851114 -0.272786 0.448546
    outer loop
      vertex -4.82605 -1.30708 -2.18137
      vertex -4.73792 -1.39072 -2.06501
      vertex -1.84074 -4.09822 1.78579
    endloop
  endfacet
  facet normal -0.278609 0.676613 0.681595
    outer loop
      vertex -2.94184 4.21727 -0.26166
      vertex -0.451362 2.3936 2.56669
      vertex 1.6799 3.27119 2.56669
    endloop
  endfacet
  facet normal -0.278607 0.676616 0.681593
    outer loop
      vertex -2.94184 4.21727 -0.26166
      vertex 1.6799 3.27119 2.56669
      vertex 0.247671 5.5306 -0.26166
    endloop
  endfacet
  facet normal 0.277897 -0.67489 -0.683591
    outer loop
      vertex -3.22773 -2.72075 -4.2268
      vertex 0.904985 0.38298 -5.61097
      vertex 1.94637 -0.590229 -4.2268
    endloop
  endfacet
  facet normal 0.280938 -0.672799 -0.684409
    outer loop
      vertex 0.904985 0.38298 -5.61097
      vertex 5.82475 0.334741 -3.54407
      vertex 1.94637 -0.590229 -4.2268
    endloop
  endfacet
  facet normal 0.277896 -0.674891 0.683591
    outer loop
      vertex -1.38807 -1.59534 4.16988
      vertex 4.0112 -2.11172 1.46514
      vertex 1.9741 -0.207981 4.17278
    endloop
  endfacet
  facet normal 0.221137 -0.711702 0.666768
    outer loop
      vertex -1.84074 -4.09822 1.78579
      vertex -0.41972 -4.21428 1.19062
      vertex -1.62276 -3.09 2.78966
    endloop
  endfacet
  facet normal 0.277992 -0.67512 -0.683326
    outer loop
      vertex -3.22773 -2.72075 -4.2268
      vertex 3.00992 -4.16104 -0.266196
      vertex -0.241827 -5.5 -0.266196
    endloop
  endfacet
  facet normal 0.277992 -0.67512 -0.683326
    outer loop
      vertex -3.22773 -2.72075 -4.2268
      vertex 1.94637 -0.590229 -4.2268
      vertex 3.00992 -4.16104 -0.266196
    endloop
  endfacet
  facet normal 0.851403 0.282423 0.441984
    outer loop
      vertex 1.6799 3.27119 2.56669
      vertex 3.64918 1.43083 -0.0508013
      vertex 1.8087 4.08953 1.79567
    endloop
  endfacet
  facet normal 0.851272 0.27755 0.445312
    outer loop
      vertex 1.40906 1.5463 4.15951
      vertex 3.64918 1.43083 -0.0508013
      vertex 1.6799 3.27119 2.56669
    endloop
  endfacet
  facet normal -0.85127 -0.277554 0.445311
    outer loop
      vertex -5.86744 -0.333873 -3.56554
      vertex -4.82605 -1.30708 -2.18137
      vertex -5.55805 1.63654 -1.74598
    endloop
  endfacet
  facet normal -0.851271 -0.277554 0.44531
    outer loop
      vertex -5.55805 1.63654 -1.74598
      vertex -4.82605 -1.30708 -2.18137
      vertex -1.84074 -4.09822 1.78579
    endloop
  endfacet
  facet normal -0.00207571 -0.000676773 0.999998
    outer loop
      vertex -1.84777 -0.18541 4.16988
      vertex -1.38807 -1.59534 4.16988
      vertex -0.616868 0.324366 4.17278
    endloop
  endfacet
  facet normal -0 0 1
    outer loop
      vertex -0.616868 0.324366 4.17278
      vertex 1.9741 -0.207981 4.17278
      vertex 1.5144 1.20195 4.17278
    endloop
  endfacet
  facet normal 0 0 1
    outer loop
      vertex 1.9741 -0.207981 4.17278
      vertex -0.616868 0.324366 4.17278
      vertex -0.157168 -1.08557 4.17278
    endloop
  endfacet
  facet normal 0.277896 -0.67489 0.683592
    outer loop
      vertex -1.38807 -1.59534 4.16988
      vertex -0.41972 -4.21428 1.19062
      vertex 4.0112 -2.11172 1.46514
    endloop
  endfacet
  facet normal 0.283832 -0.685663 0.670303
    outer loop
      vertex -0.41972 -4.21428 1.19062
      vertex 5.27036 -3.25002 -0.232419
      vertex 4.0112 -2.11172 1.46514
    endloop
  endfacet
  facet normal 0.277902 -0.674888 0.683591
    outer loop
      vertex -1.62276 -3.09 2.78966
      vertex -0.41972 -4.21428 1.19062
      vertex -1.38807 -1.59534 4.16988
    endloop
  endfacet
  facet normal -0.701816 -0.420669 0.574884
    outer loop
      vertex -1.84074 -4.09822 1.78579
      vertex -1.62276 -3.09 2.78966
      vertex -1.38807 -1.59534 4.16988
    endloop
  endfacet
  facet normal 0.278979 -0.674766 -0.683272
    outer loop
      vertex 1.94637 -0.590229 -4.2268
      vertex 3.44106 -1.41525 -2.80177
      vertex 3.00992 -4.16104 -0.266196
    endloop
  endfacet
  facet normal 0.282004 -0.674415 -0.682377
    outer loop
      vertex 3.00992 -4.16104 -0.266196
      vertex 3.44106 -1.41525 -2.80177
      vertex 5.27036 -3.25002 -0.232419
    endloop
  endfacet
  facet normal 0.682945 0.73047 -0.000224389
    outer loop
      vertex 3.31196 2.68469 -1.44124
      vertex 3.77798 2.24918 -0.821819
      vertex 5.35872 0.770258 -4.16349
    endloop
  endfacet
  facet normal 0.682785 0.730619 2.75732e-07
    outer loop
      vertex 1.34267 4.52505 1.17624
      vertex 3.77798 2.24918 -0.821819
      vertex 3.31196 2.68469 -1.44124
    endloop
  endfacet
  facet normal -0.850994 -0.269612 0.450688
    outer loop
      vertex -5.55805 1.63654 -1.74598
      vertex -4.51666 0.663328 -0.361814
      vertex -1.84777 -0.18541 4.16988
    endloop
  endfacet
  facet normal -0.85127 -0.277551 0.445314
    outer loop
      vertex -5.55805 1.63654 -1.74598
      vertex -1.84074 -4.09822 1.78579
      vertex -4.51666 0.663328 -0.361814
    endloop
  endfacet
  facet normal -0.0140832 0.0342018 0.999316
    outer loop
      vertex -0.616868 0.324366 4.17278
      vertex 1.5144 1.20195 4.17278
      vertex 1.40906 1.5463 4.15951
    endloop
  endfacet
  facet normal -0.00207571 -0.000676771 0.999998
    outer loop
      vertex -1.38807 -1.59534 4.16988
      vertex -0.157168 -1.08557 4.17278
      vertex -0.616868 0.324366 4.17278
    endloop
  endfacet
  facet normal 0.27852 -0.676399 0.681844
    outer loop
      vertex -1.38807 -1.59534 4.16988
      vertex 1.9741 -0.207981 4.17278
      vertex -0.157168 -1.08557 4.17278
    endloop
  endfacet
  facet normal -0.851224 -0.276736 0.445908
    outer loop
      vertex -4.51666 0.663328 -0.361814
      vertex -2.14598 -1.70455 2.6942
      vertex -4.42852 0.579694 -0.245462
    endloop
  endfacet
  facet normal -0.850838 -0.270526 0.450434
    outer loop
      vertex -4.42852 0.579694 -0.245462
      vertex -2.14598 -1.70455 2.6942
      vertex -1.84777 -0.18541 4.16988
    endloop
  endfacet
  facet normal -0.850944 -0.269911 0.450602
    outer loop
      vertex -4.51666 0.663328 -0.361814
      vertex -4.42852 0.579694 -0.245462
      vertex -1.84777 -0.18541 4.16988
    endloop
  endfacet
endsolid OpenSCAD_Model
